<?xml version="1.0" standalone="no"?><!DOCTYPE svg PUBLIC "-//W3C//DTD SVG 1.1//EN" "http://www.w3.org/Graphics/SVG/1.1/DTD/svg11.dtd"><svg t="1557738230014" class="icon" style="" viewBox="0 0 1024 1024" version="1.1" xmlns="http://www.w3.org/2000/svg" p-id="5806" xmlns:xlink="http://www.w3.org/1999/xlink" width="16" height="16"><defs><style type="text/css"></style></defs><path d="M435.6 663.3l517.2 101.9L775.2 466l-87.9 51.1-452.2-258.3L71.2 354l452.3 258.3-87.9 51" fill="#D4E4FC" p-id="5807"></path><path d="M238.7 252.4l448.6 256.2 84.2-48.9c3.4-2 7.9-0.9 10 2.6L959 761.5c1.5 2.5 1.4 5.6-0.3 7.9s-4.5 3.5-7.4 3L434.2 670.5c-3-0.6-5.3-3-5.8-6s0.9-6 3.5-7.5l76.9-44.7-441.2-252c-2.3-1.3-3.7-3.7-3.7-6.3 0-2.6 1.4-5 3.6-6.4l163.8-95.2c1.1-0.7 2.4-1 3.7-1 1.4 0.1 2.6 0.4 3.7 1z m288.4 353.5c2.3 1.3 3.7 3.7 3.7 6.3 0 2.6-1.4 5-3.6 6.4l-71.1 41.3 482 94.9L772.6 476 691 523.4c-2.2 1.3-5 1.3-7.3 0L235.1 267.2 85.9 353.9l441.2 252z" fill="#0276F7" p-id="5808"></path></svg>
